<?xml version="1.0" encoding="utf-8"?>
<!-- Generator: Adobe Illustrator 24.1.0, SVG Export Plug-In . SVG Version: 6.00 Build 0)  -->
<svg version="1.1" id="Layer_1" xmlns="http://www.w3.org/2000/svg" xmlns:xlink="http://www.w3.org/1999/xlink" x="0px" y="0px"
	 viewBox="0 0 108.4 114.5" style="enable-background:new 0 0 108.4 114.5;" xml:space="preserve">
<style type="text/css">
	.st0{fill:#058275;}
	.st1{fill:#FFFFFF;stroke:#000000;stroke-width:0.5105;stroke-miterlimit:10;}
	.st2{fill:none;}
	.st3{font-family:'Serenity-Medium';}
	.st4{font-size:16.3621px;}
</style>
<path class="st0" d="M102.9,35.1l-12.6-6V18.8c0-1-0.9-1.9-1.9-1.9h-24L42.9,6.6c-0.9-0.4-2.1,0-2.5,0.9l-4.4,9.3H22
	c-1,0-1.9,0.9-1.9,1.9v31.5L6.3,79.3c-0.4,0.9,0,2.1,0.9,2.5L20.1,88v10.2c0,1,0.9,1.9,1.9,1.9h23.7l21.5,10.2
	c0.9,0.4,2.1,0,2.5-0.9l4.4-9.3h14.2c1,0,1.9-0.9,1.9-1.9V66.1l13.5-28.4C104.3,36.7,103.9,35.6,102.9,35.1z"/>
<path class="st1" d="M100.6,36.5l-12-5.7v-9.9c0-1-0.8-1.8-1.8-1.8H64L43.5,9.4c-0.9-0.4-2,0-2.4,0.9l-4.2,8.9H23.6
	c-1,0-1.8,0.8-1.8,1.8v30L8.6,78.6c-0.4,0.9,0,2,0.9,2.4l12.3,5.8v9.7c0,1,0.8,1.8,1.8,1.8h22.6l20.5,9.7c0.9,0.4,2,0,2.4-0.9
	l4.2-8.9h13.6c1,0,1.8-0.8,1.8-1.8V66l12.8-27.1C101.9,38,101.6,36.9,100.6,36.5z"/>
<rect x="72.5" y="80.5" class="st2" width="18.3" height="20.1"/>
<text transform="matrix(1 0 0 1 72.4715 90.7834)" class="st0 st3 st4">$</text>
</svg>
