<?xml version="1.0" encoding="utf-8"?>
<!-- Generator: Adobe Illustrator 24.1.0, SVG Export Plug-In . SVG Version: 6.00 Build 0)  -->
<svg version="1.1" id="Layer_1" xmlns="http://www.w3.org/2000/svg" xmlns:xlink="http://www.w3.org/1999/xlink" x="0px" y="0px"
	 viewBox="0 0 476.8 898.4" style="enable-background:new 0 0 476.8 898.4;" xml:space="preserve">
<style type="text/css">
	.st0{fill:#FFFFFF;stroke:#000000;stroke-width:0.9813;stroke-miterlimit:10;}
	.st1{fill:#FFFFFF;stroke:#000000;stroke-width:0.8449;stroke-miterlimit:10;}
	.st2{fill:#F1F2F2;stroke:#000000;stroke-width:0.4158;stroke-miterlimit:10;}
	.st3{fill:#058275;}
	.st4{font-family:'MyriadPro-Regular';}
	.st5{font-size:18px;}
	.st6{fill:#F1F2F2;}
	.st7{font-family:'Roboto-Black';}
	.st8{font-size:28px;}
</style>
<path class="st0" d="M414.6,883.7H67c-25,0-45.5-20.5-45.5-45.5V61.7c0-25,20.5-45.5,45.5-45.5h347.7c25,0,45.5,20.5,45.5,45.5
	v776.5C460.1,863.3,439.6,883.7,414.6,883.7z"/>
<path class="st1" d="M391.3,790.9H90c-21.6,0-39.2-17.6-39.2-39.2V86.8c0-21.6,17.6-39.2,39.2-39.2h301.3
	c21.6,0,39.2,17.6,39.2,39.2v664.9C430.5,773.2,412.8,790.9,391.3,790.9z"/>
<path class="st2" d="M423.5,46.9H57.4c-3.5,0-6.4,2.9-6.4,6.4v42.5c0,3.5,2.9,6.4,6.4,6.4h366.2c3.5,0,6.4-2.9,6.4-6.4V53.3
	C429.9,49.8,427.1,46.9,423.5,46.9z"/>
<path class="st3" d="M378,157.5H107.1c-8,0-14.5,6.5-14.5,14.5v334c0,8,6.5,14.5,14.5,14.5H378c8,0,14.5-6.5,14.5-14.5V172
	C392.5,164,386,157.5,378,157.5z"/>
<text transform="matrix(1 0 0 1 63.2339 75.8855)" class="st4 st5">Employer</text>
<text transform="matrix(1 0 0 1 172.3788 197.465)" class="st6 st7 st8">WELLPAYED</text>
<text transform="matrix(1 0 0 1 126.1392 274.2809)"><tspan x="0" y="0" class="st6 st4 st8">Mike is requesting</tspan><tspan x="0" y="33.6" class="st6 st4 st8">vacation hours</tspan></text>
<path class="st6" d="M378.6,495.2H107.3c-0.9,0-1.6-0.7-1.6-1.6v-44.2c0-0.9,0.7-1.6,1.6-1.6h271.3c0.9,0,1.6,0.7,1.6,1.6v44.2
	C380.2,494.5,379.5,495.2,378.6,495.2z"/>
<text transform="matrix(1 0 0 1 153.8426 479.8003)" class="st4 st8">Approve hours.</text>
<path class="st6" d="M377.5,432H106.2c-0.9,0-1.6-0.7-1.6-1.6v-44.2c0-0.9,0.7-1.6,1.6-1.6h271.3c0.9,0,1.6,0.7,1.6,1.6v44.2
	C379.1,431.3,378.4,432,377.5,432z"/>
<text transform="matrix(1 0 0 1 163.6297 416.549)" class="st4 st8">View request.</text>
</svg>
