<?xml version="1.0" encoding="utf-8"?>
<!-- Generator: Adobe Illustrator 24.1.0, SVG Export Plug-In . SVG Version: 6.00 Build 0)  -->
<svg version="1.1" id="Layer_1" xmlns="http://www.w3.org/2000/svg" xmlns:xlink="http://www.w3.org/1999/xlink" x="0px" y="0px"
	 viewBox="0 0 98.6 105.4" style="enable-background:new 0 0 98.6 105.4;" xml:space="preserve">
<style type="text/css">
	.st0{fill:#058275;}
	.st1{fill:#F1F2F2;}
	.st2{fill:#A3BEC0;}
	.st3{fill:none;stroke:#000000;stroke-width:0.6411;stroke-miterlimit:10;}
</style>
<g>
	<path class="st0" d="M40.9,20c-6.2-0.2-6.2-0.2-6.3,6.2c0,0.8-0.1,1.7,0,2.5c0.3,2.4-0.7,3.3-3.2,3.2c-8.2-0.1-16.4-0.1-24.6,0
		c-4.9,0-5.3,0.4-5.3,5.2c0,21.1,0,42.2,0,63.3c0,5.1,0.4,5.5,5.4,5.5c28.1,0,56.3,0,84.4,0c4.9,0,5.8-1.1,5.3-6.1
		c-0.1-1,0-2.1,0-3.2c0-19.9,0-39.9,0-59.8c0-4.3-0.6-4.8-4.9-4.8c-7.5,0-15,0-22.5,0c-5,0-5.6-0.6-5.6-5.7c0-6.3,0-6.3-6.2-6.2
		c-0.1-5.4-0.2-10.8-0.1-16.2c0-1.9-0.6-2.4-2.4-2.4c-3.5,0.1-7,0.2-10.6,0C41.8,1.3,41,2.1,41,4.6C41.1,9.7,41,14.9,40.9,20z"/>
	<rect x="6.6" y="37.7" class="st1" width="84.3" height="64.9"/>
	<path class="st0" d="M57.3,20c-0.4,6.8-0.4,6.8-7.6,6.8c-0.3,0-0.7,0-1,0c-7.2,0-7.2,0-7.8-6.8C41,14.9,41.1,9.7,41,4.6
		c-0.1-2.5,0.8-3.2,3.2-3.1c3.5,0.2,7,0.1,10.6,0c1.8-0.1,2.4,0.5,2.4,2.4C57.1,9.2,57.3,14.6,57.3,20z M49.2,12.2
		c2.1-0.2,3.4-1.4,3.3-3.4c0-2.2-1.4-3.6-3.6-3.4c-2,0.1-3.2,1.4-3.1,3.5C46,11,47.2,12,49.2,12.2z"/>
	<path class="st2" d="M49.2,12.2C47.2,12,46,11,45.9,8.9c-0.1-2.1,1.1-3.4,3.1-3.5c2.2-0.2,3.5,1.2,3.6,3.4
		C52.5,10.8,51.3,11.9,49.2,12.2z"/>
	<line class="st3" x1="13.3" y1="50" x2="84.5" y2="50"/>
	<line class="st3" x1="13.7" y1="61.7" x2="84.9" y2="61.7"/>
	<line class="st3" x1="13.3" y1="73.5" x2="84.5" y2="73.5"/>
	<line class="st3" x1="13.3" y1="85.2" x2="84.5" y2="85.2"/>
	<line class="st3" x1="13" y1="95.9" x2="84.2" y2="95.9"/>
	<line class="st3" x1="78.4" y1="42.8" x2="78.7" y2="100.7"/>
	<line class="st3" x1="20.5" y1="42.8" x2="20.8" y2="100.7"/>
</g>
</svg>
