<?xml version="1.0" encoding="utf-8"?>
<!-- Generator: Adobe Illustrator 24.1.0, SVG Export Plug-In . SVG Version: 6.00 Build 0)  -->
<svg version="1.1" id="Layer_1" xmlns="http://www.w3.org/2000/svg" xmlns:xlink="http://www.w3.org/1999/xlink" x="0px" y="0px"
	 viewBox="0 0 476.8 898.4" style="enable-background:new 0 0 476.8 898.4;" xml:space="preserve">
<style type="text/css">
	.st0{fill:#FFFFFF;stroke:#000000;stroke-width:0.9813;stroke-miterlimit:10;}
	.st1{fill:#FFFFFF;stroke:#000000;stroke-width:0.8449;stroke-miterlimit:10;}
	.st2{fill:#F1F2F2;stroke:#000000;stroke-width:0.4165;stroke-miterlimit:10;}
	.st3{fill:#058275;}
	.st4{font-family:'MyriadPro-Regular';}
	.st5{font-size:18px;}
	.st6{fill:#F1F2F2;}
	.st7{font-size:28px;}
	.st8{fill:#FFFFFF;}
</style>
<path class="st0" d="M411.4,886.9H63.8c-25,0-45.5-20.5-45.5-45.5V64.9c0-25,20.5-45.5,45.5-45.5h347.7c25,0,45.5,20.5,45.5,45.5
	v776.5C456.9,866.5,436.4,886.9,411.4,886.9z"/>
<path class="st1" d="M388.3,794.1H87.1c-21.6,0-39.2-17.6-39.2-39.2V70c0-10.5,8.6-19.1,19.1-19.1h341.4c10.5,0,19.1,8.6,19.1,19.1
	v684.9C427.5,776.4,409.9,794.1,388.3,794.1z"/>
<path class="st2" d="M420.7,50.1H53.3c-3.5,0-6.4,2.9-6.4,6.4v42.4c0,3.5,2.9,6.4,6.4,6.4h367.4c3.5,0,6.4-2.9,6.4-6.4V56.5
	C427.1,53,424.2,50.1,420.7,50.1z"/>
<path class="st3" d="M369.1,160.7H98.2c-8,0-14.5,6.5-14.5,14.5v334c0,8,6.5,14.5,14.5,14.5h270.9c8,0,14.5-6.5,14.5-14.5v-334
	C383.6,167.2,377.1,160.7,369.1,160.7z"/>
<text transform="matrix(1 0 0 1 58.7822 79.0854)" class="st4 st5">Employee</text>
<text transform="matrix(1 0 0 1 163.4606 200.6649)" class="st6 st4 st7">Last requests</text>
<text transform="matrix(1 0 0 1 99.4741 257.5418)" class="st6 st4 st7">Oct 13 - Oct 25th</text>
<text transform="matrix(1 0 0 1 97.1042 345.2271)" class="st6 st4 st7">Jan 15 - Jan 25th</text>
<text transform="matrix(1 0 0 1 97.1042 436.4672)" class="st6 st4 st7">Jun 13 - Jun 15</text>
<path class="st3" d="M373.4,688.8H102c-0.9,0-1.6-0.7-1.6-1.6V643c0-0.9,0.7-1.6,1.6-1.6h271.3c0.9,0,1.6,0.7,1.6,1.6v44.2
	C374.9,688,374.2,688.8,373.4,688.8z"/>
<text transform="matrix(1 0 0 1 162.7485 673.3134)" class="st8 st4 st7">New request</text>
</svg>
