<?xml version="1.0" encoding="utf-8"?>
<!-- Generator: Adobe Illustrator 24.1.0, SVG Export Plug-In . SVG Version: 6.00 Build 0)  -->
<svg version="1.1" id="Layer_1" xmlns="http://www.w3.org/2000/svg" xmlns:xlink="http://www.w3.org/1999/xlink" x="0px" y="0px"
	 viewBox="0 0 108.4 114.5" style="enable-background:new 0 0 108.4 114.5;" xml:space="preserve">
<style type="text/css">
	.st0{fill:#058275;}
	.st1{fill:#F1F2F2;}
</style>
<g>
	<circle class="st0" cx="55.1" cy="58.5" r="51"/>
	<path class="st1" d="M97.6,58.9c-0.1,23.3-19.4,42.7-42.5,42.2c-23.7-0.5-42.5-17.4-42.4-43c0-26,21.2-42.6,43.9-42.2
		C79.2,16.3,97.7,35.5,97.6,58.9z M52.2,46.8c0,14.6,0,14.6,14.5,14.7c1.5,0,3,0,4.6,0c1.9,0,3.4-0.4,3.6-2.8c0.1-2.8-1.6-3-3.7-3.2
		c-4.2-0.4-10,2.1-12.2-1.4c-2.1-3.3-0.7-8.8-0.9-13.3c0-1.3,0-2.6,0-3.9c0-1.8-0.1-3.5-2.6-3.7c-2.8-0.2-3.2,1.7-3.2,3.8
		C52.1,40.3,52.2,43.6,52.2,46.8z M92.8,58.3c-0.2-1.8-1.6-1.8-2.9-1.8c-1.3,0-2.8-0.1-2.9,1.7c-0.1,2.3,1.6,2.1,3.1,2.2
		C91.7,60.5,92.8,60.1,92.8,58.3z M20.6,60.5c1.4,0.1,2.7-0.2,2.8-1.8c0.1-2.2-1.6-2.1-3.1-2.1c-1.3,0-2.7,0-2.7,1.8
		C17.5,60.5,19.1,60.4,20.6,60.5z"/>
</g>
</svg>
