<?xml version="1.0" encoding="utf-8"?>
<!-- Generator: Adobe Illustrator 24.1.0, SVG Export Plug-In . SVG Version: 6.00 Build 0)  -->
<svg version="1.1" id="Layer_1" xmlns="http://www.w3.org/2000/svg" xmlns:xlink="http://www.w3.org/1999/xlink" x="0px" y="0px"
	 viewBox="0 0 476.8 898.4" style="enable-background:new 0 0 476.8 898.4;" xml:space="preserve">
<style type="text/css">
	.st0{fill:#FFFFFF;stroke:#000000;stroke-width:0.9813;stroke-miterlimit:10;}
	.st1{fill:#FFFFFF;stroke:#000000;stroke-width:0.8449;stroke-miterlimit:10;}
	.st2{fill:#F1F2F2;stroke:#000000;stroke-width:0.4165;stroke-miterlimit:10;}
	.st3{fill:#058275;}
	.st4{font-family:'MyriadPro-Regular';}
	.st5{font-size:18px;}
	.st6{fill:#F1F2F2;}
	.st7{font-size:28px;}
	.st8{fill:#FFFFFF;}
	.st9{fill:none;stroke:#000000;stroke-miterlimit:10;}
</style>
<path class="st0" d="M416.2,885.3H68.6c-25,0-45.5-20.5-45.5-45.5V63.3c0-25,20.5-45.5,45.5-45.5h347.7c25,0,45.5,20.5,45.5,45.5
	v776.5C461.7,864.9,441.2,885.3,416.2,885.3z"/>
<path class="st1" d="M393.1,792.5H91.9c-21.6,0-39.2-17.6-39.2-39.2V68.4c0-10.5,8.6-19.1,19.1-19.1h341.4
	c10.5,0,19.1,8.6,19.1,19.1v684.9C432.3,774.8,414.7,792.5,393.1,792.5z"/>
<path class="st2" d="M425.5,48.5H58.1c-3.5,0-6.4,2.9-6.4,6.4v42.4c0,3.5,2.9,6.4,6.4,6.4h367.4c3.5,0,6.4-2.9,6.4-6.4V54.9
	C431.9,51.4,429,48.5,425.5,48.5z"/>
<path class="st3" d="M373.9,159.1H103c-8,0-14.5,6.5-14.5,14.5v334c0,8,6.5,14.5,14.5,14.5h270.9c8,0,14.5-6.5,14.5-14.5v-334
	C388.4,165.6,381.9,159.1,373.9,159.1z"/>
<text transform="matrix(1 0 0 1 63.582 77.4854)" class="st4 st5">Employee</text>
<text transform="matrix(1 0 0 1 168.2604 199.0649)" class="st6 st4 st7">Book time off</text>
<path class="st6" d="M376.1,496.8H104.8c-0.9,0-1.6-0.7-1.6-1.6v-44.2c0-0.9,0.7-1.6,1.6-1.6h271.3c0.9,0,1.6,0.7,1.6,1.6v44.2
	C377.6,496.1,376.9,496.8,376.1,496.8z"/>
<path class="st6" d="M326.4,258.9H109.7c-0.7,0-1.2-0.5-1.2-1.2v-31.8c0-0.7,0.5-1.2,1.2-1.2h216.7c0.7,0,1.2,0.5,1.2,1.2v31.8
	C327.6,258.4,327.1,258.9,326.4,258.9z"/>
<text transform="matrix(1 0 0 1 198.2508 481.4)" class="st4 st7">Submit</text>
<path class="st3" d="M378.2,687.2H106.8c-0.9,0-1.6-0.7-1.6-1.6v-44.2c0-0.9,0.7-1.6,1.6-1.6h271.3c0.9,0,1.6,0.7,1.6,1.6v44.2
	C379.7,686.4,379,687.2,378.2,687.2z"/>
<text transform="matrix(1 0 0 1 167.5483 671.7134)" class="st8 st4 st7">View requests</text>
<text transform="matrix(1 0 0 1 117.7314 249.717)" class="st4 st7">month</text>
<g>
	<line class="st9" x1="298" y1="239.5" x2="306.4" y2="251.2"/>
	<line class="st9" x1="315.9" y1="239.6" x2="306.4" y2="251.2"/>
</g>
<path class="st6" d="M326.5,309.9H109.7c-0.7,0-1.2-0.5-1.2-1.2v-31.8c0-0.7,0.5-1.2,1.2-1.2h216.8c0.7,0,1.2,0.5,1.2,1.2v31.8
	C327.6,309.3,327.1,309.9,326.5,309.9z"/>
<text transform="matrix(1 0 0 1 117.7314 300.6911)" class="st4 st7">day</text>
<g>
	<line class="st9" x1="298" y1="290.5" x2="306.4" y2="302.2"/>
	<line class="st9" x1="315.9" y1="290.5" x2="306.4" y2="302.2"/>
</g>
<path class="st6" d="M326.3,357.7h-217c-0.7,0-1.2-0.5-1.2-1.2v-31.8c0-0.7,0.5-1.2,1.2-1.2h217c0.7,0,1.2,0.5,1.2,1.2v31.8
	C327.5,357.2,326.9,357.7,326.3,357.7z"/>
<text transform="matrix(1 0 0 1 117.3393 348.5283)" class="st4 st7">New request</text>
<g>
	<line class="st9" x1="297.6" y1="338.4" x2="306" y2="350"/>
	<line class="st9" x1="315.5" y1="338.4" x2="306" y2="350"/>
</g>
</svg>
